<?xml version="1.0" standalone="no"?>
<!DOCTYPE svg PUBLIC "-//W3C//DTD SVG 20010904//EN"
 "http://www.w3.org/TR/2001/REC-SVG-20010904/DTD/svg10.dtd">
<svg version="1.0" xmlns="http://www.w3.org/2000/svg"
 width="420.000000pt" height="675.000000pt" viewBox="0 0 420.000000 675.000000"
 preserveAspectRatio="xMidYMid meet">

<g transform="translate(0.000000,675.000000) scale(0.100000,-0.100000)"
fill="#000000" stroke="none">
<path d="M1878 6735 c-652 -93 -1122 -566 -1263 -1270 -49 -246 -56 -495 -20
-700 34 -194 129 -424 248 -600 83 -123 285 -323 406 -404 456 -302 1007 -340
1508 -101 498 237 823 721 859 1280 7 111 -8 312 -37 484 -117 691 -556 1169
-1189 1297 -128 26 -382 33 -512 14z m-756 -1341 c392 -152 1048 -193 1561
-99 170 32 358 90 469 146 31 16 59 25 61 21 3 -4 8 -25 11 -47 11 -65 56
-136 100 -158 33 -18 46 -19 103 -10 35 5 66 6 69 1 13 -21 25 -196 19 -293
-22 -372 -168 -691 -434 -947 -165 -159 -329 -261 -528 -327 -166 -56 -239
-66 -458 -66 -180 1 -211 4 -311 27 -285 67 -513 196 -715 405 -193 199 -317
437 -368 705 -23 125 -36 281 -26 337 6 39 8 41 43 42 117 2 187 82 221 255
l16 82 39 -20 c21 -11 79 -35 128 -54z"/>
<path d="M615 3303 c-330 -168 -603 -311 -607 -317 -4 -6 -8 -673 -8 -1483 l0
-1472 22 -15 c20 -14 233 -16 2074 -16 1939 0 2053 1 2073 18 l21 17 -2 1478
-3 1479 -605 309 c-333 170 -610 309 -617 309 -7 0 -43 -20 -80 -44 -158 -102
-340 -175 -528 -212 -125 -25 -395 -25 -520 0 -188 37 -370 110 -528 212 -37
24 -73 44 -80 44 -7 0 -282 -138 -612 -307z m595 140 c23 -71 90 -190 146
-257 31 -37 95 -96 142 -131 89 -66 306 -183 380 -206 23 -7 42 -16 42 -20 0
-5 -72 -490 -160 -1079 -132 -881 -158 -1074 -149 -1093 7 -12 102 -136 211
-275 109 -139 201 -259 205 -267 4 -13 -110 -15 -893 -15 -495 0 -929 3 -967
7 l-67 6 2 1409 3 1409 535 274 c294 150 540 274 547 274 6 1 17 -16 23 -36z
m2337 -237 l538 -275 3 -1415 2 -1416 -966 0 c-844 0 -965 2 -961 15 4 8 96
128 205 267 109 139 204 263 211 275 9 19 -16 209 -149 1093 -88 589 -160
1074 -160 1079 0 4 18 13 40 20 108 32 357 176 452 260 86 77 182 223 217 334
7 20 16 37 21 37 5 0 251 -124 547 -274z m-1923 100 c107 -34 219 -58 338 -71
l57 -6 -69 -140 -70 -139 -38 15 c-133 56 -309 173 -390 259 -53 58 -132 177
-132 201 0 6 43 -11 96 -37 53 -26 146 -63 208 -82z m1230 82 c-56 -109 -147
-209 -259 -285 -68 -45 -191 -114 -247 -138 l-38 -15 -70 139 -69 140 57 6
c197 22 392 77 544 153 51 26 94 44 96 40 2 -4 -4 -22 -14 -40z"/>
</g>
</svg>
